<svg width="213" height="213" viewBox="0 0 213 213" fill="none" xmlns="http://www.w3.org/2000/svg">
<g clip-path="url(#clip0_27_24)">
<path d="M53.25 26.625C53.25 11.9396 65.1896 0 79.875 0H146.438V53.25C146.438 60.6135 152.387 66.5625 159.75 66.5625H213V186.375C213 201.06 201.06 213 186.375 213H79.875C65.1896 213 53.25 201.06 53.25 186.375V139.781H125.678L109.454 156.006C105.543 159.916 105.543 166.24 109.454 170.109C113.364 173.978 119.688 174.019 123.557 170.109L156.838 136.828C160.748 132.917 160.748 126.594 156.838 122.725L123.557 89.4434C119.646 85.5328 113.323 85.5328 109.454 89.4434C105.585 93.3539 105.543 99.6773 109.454 103.546L125.678 119.771H53.25V26.625ZM53.25 119.812V139.781H9.98438C4.45137 139.781 0 135.33 0 129.797C0 124.264 4.45137 119.812 9.98438 119.812H53.25ZM213 53.25H159.75V0L213 53.25Z" fill="black"/>
</g>
<defs>
<clipPath id="clip0_27_24">
<rect width="213" height="213" fill="white"/>
</clipPath>
</defs>
</svg>
