<svg width="230" height="230" viewBox="0 0 230 230" fill="none" xmlns="http://www.w3.org/2000/svg">
<g clip-path="url(#clip0_27_22)">
<path d="M223.756 2.51569C228.293 5.66023 230.674 11.0958 229.821 16.5313L201.071 203.406C200.397 207.764 197.746 211.582 193.883 213.738C190.02 215.895 185.393 216.164 181.305 214.457L127.578 192.131L96.8069 225.418C92.8089 229.775 86.5198 231.213 80.9944 229.057C75.469 226.9 71.8753 221.555 71.8753 215.625V178.07C71.8753 176.274 72.5491 174.566 73.762 173.264L149.051 91.1016C151.657 88.2716 151.567 83.9141 148.871 81.2188C146.176 78.5235 141.819 78.3438 138.989 80.9044L47.6175 162.078L7.95146 142.223C3.18974 139.842 0.13505 135.08 0.000284327 129.779C-0.134481 124.479 2.65068 119.537 7.23271 116.887L208.483 1.88679C213.289 -0.853446 219.219 -0.583915 223.756 2.51569Z" fill="black"/>
</g>
<defs>
<clipPath id="clip0_27_22">
<rect width="230" height="230" fill="white"/>
</clipPath>
</defs>
</svg>
