<svg width="549" height="1004" viewBox="0 0 549 1004" fill="none" xmlns="http://www.w3.org/2000/svg">
<path d="M18.2199 68.2877C9.02331 33.8191 35.0022 0 70.6765 0H321V1004H106.146C50.7486 1004 8.76149 954.013 18.3256 899.448V899.448C20.387 887.687 20.0651 875.631 17.3787 863.997L5.48981 812.506C1.86363 796.801 1.28438 780.546 3.7835 764.623L18.441 671.232C20.4348 658.528 20.4722 645.594 18.552 632.88L3.25596 531.598C1.10133 517.332 1.41314 502.801 4.17778 488.64L17.8667 418.522C20.2421 406.354 20.8089 393.903 19.5487 381.57L1.90064 208.86C0.640448 196.527 1.2072 184.076 3.58258 171.909L19.049 92.6865C20.6284 84.5961 20.3449 76.2522 18.2199 68.2877V68.2877Z" fill="#0E9AB9"/>
<path d="M528.83 67.4074C538.886 33.8016 513.718 0 478.64 0H189V1004H443.948C498.362 1004 539.233 954.312 528.737 900.92V900.92C526.241 888.22 526.629 875.121 529.874 862.591L542.142 815.214C546.661 797.761 547.383 779.542 544.258 761.786L528.717 673.494C526.221 659.312 526.174 644.808 528.578 630.61L544.917 534.146C547.614 518.223 547.225 501.931 543.771 486.155L529.427 420.644C526.459 407.088 525.751 393.136 527.331 379.349L546.614 211.081C548.194 197.295 547.485 183.342 544.518 169.787L527.843 93.6307C525.942 84.9475 526.282 75.9233 528.83 67.4074V67.4074Z" fill="#0E9AB9"/>
</svg>
