<svg width="43" height="28" viewBox="0 0 43 28" fill="none" xmlns="http://www.w3.org/2000/svg">
<path d="M33.7303 17.9517C34.1306 17.4605 34.881 17.4607 35.281 17.9521L36.637 19.6177C36.7185 19.7178 36.8186 19.8011 36.9317 19.8632L38.3176 20.6232C39.0099 21.0028 39.0099 21.9972 38.3176 22.3768L36.9317 23.1368C36.8186 23.1989 36.7185 23.2822 36.637 23.3823L35.281 25.0479C34.881 25.5393 34.1306 25.5395 33.7303 25.0483L32.3722 23.3819C32.2909 23.2821 32.191 23.1989 32.0782 23.137L30.6927 22.3767C30.0008 21.997 30.0008 21.003 30.6927 20.6233L32.0782 19.863C32.191 19.8011 32.2909 19.7179 32.3722 19.6181L33.7303 17.9517Z" fill="black"/>
<path d="M13.0675 4.12566C13.8679 3.06176 15.4648 3.06217 16.2646 4.12646L20.441 9.68396C20.5978 9.89263 20.794 10.0686 21.0184 10.2019L26.2007 13.2805C27.5054 14.0556 27.5054 15.9444 26.2007 16.7195L21.0184 19.7981C20.794 19.9314 20.5978 20.1074 20.441 20.316L16.2646 25.8735C15.4648 26.9378 13.8679 26.9382 13.0675 25.8743L8.88549 20.3152C8.72891 20.1071 8.53317 19.9315 8.30928 19.7984L3.12974 16.7191C1.82579 15.9439 1.82579 14.0561 3.12973 13.2809L8.30928 10.2016C8.53317 10.0685 8.72891 9.89292 8.88549 9.68477L13.0675 4.12566Z" fill="#0E9AB9"/>
<path d="M33.7081 1.05426C34.1083 0.525355 34.9032 0.525559 35.3032 1.05467L37.6432 4.15011C37.7219 4.25416 37.8201 4.34182 37.9324 4.40814L40.8633 6.13894C41.5186 6.52594 41.5186 7.47406 40.8633 7.86106L37.9324 9.59186C37.8201 9.65819 37.7219 9.74584 37.6432 9.84989L35.3032 12.9453C34.9032 13.4744 34.1083 13.4746 33.7081 12.9457L31.365 9.84948C31.2864 9.7457 31.1884 9.65824 31.0763 9.59203L28.1471 7.8609C27.4922 7.47382 27.4922 6.52618 28.1471 6.1391L31.0763 4.40797C31.1884 4.34176 31.2864 4.2543 31.365 4.15052L33.7081 1.05426Z" fill="#0E9AB9"/>
</svg>
